<svg width="602" height="96" viewBox="0 0 602 96" fill="none" xmlns="http://www.w3.org/2000/svg">
<path d="M602 95.5H1V50.5C1 50.5 196 98 247 66C258.304 58.9072 264.72 54.7867 268.104 52.5386C278.859 45.3944 258.995 57.1611 268.104 52.5386C269.06 52.0533 270.336 51.3874 272 50.5C277.098 47.7808 278.731 46.6021 278.864 46.1841C279.156 45.2666 272.22 48.0164 278.864 46.1841C282.549 45.1679 290.411 42.7423 306 37.5C362.5 18.5 353.5 23.5 389 10.5C424.5 -2.5 473.5 -2.5 506.5 10.5C539.5 23.5 602 50.5 602 50.5V95.5Z" fill="#257FC0"/>
<path d="M1 95.5H602V50.5C602 50.5 539.5 23.5 506.5 10.5C473.5 -2.5 424.5 -2.5 389 10.5C353.5 23.5 362.5 18.5 306 37.5C249.5 56.5 294.5 38.5 272 50.5C249.5 62.5 298 34 247 66C196 98 1 50.5 1 50.5V95.5Z" stroke="#257FC0"/>
</svg>
